<?xml version="1.0" encoding="utf-8"?>
<!-- Generator: Adobe Illustrator 19.0.0, SVG Export Plug-In . SVG Version: 6.00 Build 0)  -->
<svg version="1.1" id="Layer_1" xmlns="http://www.w3.org/2000/svg" xmlns:xlink="http://www.w3.org/1999/xlink" x="0px" y="0px"
	 viewBox="0 0 14.6 14" style="enable-background:new 0 0 14.6 14;" xml:space="preserve">
<style type="text/css">
	.st0{fill:#A5A5A5;}
	.st1{fill:#EB3E3E;}
</style>
<path id="XMLID_19_" class="st0" d="M49.1,15c0-0.7,0-1.4,0-2.1c1.5,0,2.7-0.6,3.7-1.7c0.7-0.9,1.1-1.9,1.1-3
	c0.1-2.1-1.3-4.1-3.3-4.7c-2.1-0.7-4.1,0.1-5.1,1.4c0.6,0.4,1.2,0.7,1.8,1.1c-1.9,1.1-3.9,2.2-5.8,3.3c0-2.2,0-4.4,0-6.7
	c0.7,0.4,1.3,0.8,2,1.2c1.3-1.6,2.9-2.5,5-2.7c1.6-0.1,3.1,0.3,4.5,1.2c2.7,1.8,3.8,5.3,2.7,8.3C54.5,13.6,51.6,15.1,49.1,15z"/>
<g id="XMLID_54_">
	<path id="XMLID_105_" class="st1" d="M6.2,0.4c0.7,0,1.5,0,2.2,0c0,0,0,0,0.1,0C9.2,0.6,9.7,1.2,9.8,2c0,0.1,0,0.3,0,0.5
		c0.1,0,0.1,0,0.2,0c0.6,0,1.2,0,1.8,0c0.1,0,0.1,0,0.2,0c0.2,0.1,0.4,0.3,0.4,0.5c0,0.2,0,0.3,0,0.5c0.2,0,0.3,0,0.5,0
		c0,0.3,0,0.7,0,1c-0.3,0-0.7,0-1,0c0,0.1,0,0.1,0,0.2c0,2.4,0,4.9,0,7.3c0,0.1,0,0.1,0,0.2c0,0.6-0.3,1-0.8,1.3
		c-0.2,0.1-0.4,0.1-0.6,0.2c-2.1,0-4.2,0-6.4,0c0,0-0.1,0-0.1,0c-0.3,0-0.5-0.1-0.7-0.3c-0.4-0.3-0.6-0.8-0.6-1.3c0-2.5,0-4.9,0-7.4
		c0-0.1,0-0.1,0-0.2c-0.3,0-0.7,0-1,0c0-0.3,0-0.7,0-1c0.2,0,0.3,0,0.5,0c0-0.2,0-0.3,0-0.4c0-0.4,0.2-0.6,0.6-0.6
		c0.6,0,1.2,0,1.8,0c0,0,0.1,0,0.2,0c0-0.1,0-0.1,0-0.2c0-0.8,0.3-1.4,1-1.7C5.9,0.5,6.1,0.4,6.2,0.4z M10.9,4.5c-2.4,0-4.8,0-7.2,0
		c0,0.1,0,0.1,0,0.2c0,2.5,0,4.9,0,7.4c0,0.1,0,0.1,0,0.2c0,0.2,0.2,0.4,0.4,0.4c0.1,0,0.1,0,0.2,0c1.9,0,3.9,0,5.8,0
		c0.1,0,0.2,0,0.2,0c0.2,0,0.3-0.1,0.4-0.3c0-0.1,0-0.2,0-0.3c0-2.5,0-4.9,0-7.4C10.9,4.6,10.9,4.5,10.9,4.5z M5.8,2.4c1,0,2,0,3,0
		c0-0.1,0-0.1,0-0.1c0-0.5-0.3-0.8-0.9-0.8c-0.4,0-0.9,0-1.3,0C6.1,1.4,5.7,1.8,5.8,2.4z"/>
	<path id="XMLID_96_" class="st1" d="M7.8,5.5c0,2,0,4.1,0,6.1c-0.3,0-0.7,0-1,0c0-2,0-4.1,0-6.1C7.1,5.5,7.5,5.5,7.8,5.5z"/>
	<path id="XMLID_95_" class="st1" d="M5.7,11.6c-0.3,0-0.7,0-1,0c0-2,0-4.1,0-6.1c0.3,0,0.7,0,1,0C5.7,7.5,5.7,9.6,5.7,11.6z"/>
	<path id="XMLID_94_" class="st1" d="M9.8,11.6c-0.3,0-0.7,0-1,0c0-2,0-4.1,0-6.1c0.3,0,0.7,0,1,0C9.8,7.5,9.8,9.6,9.8,11.6z"/>
</g>
</svg>
