<?xml version="1.0" encoding="utf-8"?>
<!-- Generator: Adobe Illustrator 19.0.0, SVG Export Plug-In . SVG Version: 6.00 Build 0)  -->
<svg version="1.1" id="Layer_1" xmlns="http://www.w3.org/2000/svg" xmlns:xlink="http://www.w3.org/1999/xlink" x="0px" y="0px"
	 viewBox="0 0 14.6 14" style="enable-background:new 0 0 14.6 14;" xml:space="preserve">
<style type="text/css">
	.st0{fill:#A5A5A5;}
</style>
<path id="XMLID_19_" class="st0" d="M7.6,14c0-0.7,0-1.4,0-2.1c1.5,0,2.7-0.6,3.7-1.7c0.7-0.9,1.1-1.9,1.1-3
	c0.1-2.1-1.3-4.1-3.3-4.7C7,1.7,5,2.6,3.9,3.8c0.6,0.4,1.2,0.7,1.8,1.1C3.9,6,1.9,7.1,0,8.2C0,6,0,3.8,0,1.5c0.7,0.4,1.3,0.8,2,1.2
	C3.3,1.1,4.9,0.2,7,0c1.6-0.1,3.1,0.3,4.5,1.2c2.7,1.8,3.8,5.3,2.7,8.3C13,12.6,10.1,14.1,7.6,14z"/>
</svg>
